<svg width="329" height="89" viewBox="0 0 329 89" fill="none" xmlns="http://www.w3.org/2000/svg">
<circle cx="44.5" cy="44.5" r="44.5" fill="url(#paint0_radial_301_79)"/>
<path d="M280.167 80.04V9.95999H302.727C307.719 9.95999 312.039 10.824 315.687 12.552C319.335 14.28 322.151 16.744 324.135 19.944C326.183 23.144 327.207 26.92 327.207 31.272C327.207 35.816 326.087 39.88 323.847 43.464C321.671 47.048 318.695 49.64 314.919 51.24L328.167 80.04H312.519L301.191 53.544H294.471V80.04H280.167ZM294.471 41.064H302.727C305.927 41.064 308.391 40.264 310.119 38.664C311.911 37.064 312.807 34.824 312.807 31.944C312.807 28.936 311.911 26.6 310.119 24.936C308.391 23.272 305.927 22.44 302.727 22.44H294.471V41.064Z" fill="white"/>
<path d="M242.965 80.04V23.4H225.205V9.95999H275.125V23.4H257.365V80.04H242.965Z" fill="white"/>
<path d="M196.603 81C189.499 81 183.866 79.08 179.706 75.24C175.61 71.4 173.562 66.152 173.562 59.496V9.95999H187.963V59.4C187.963 62.344 188.699 64.616 190.171 66.216C191.707 67.752 193.851 68.52 196.603 68.52C199.291 68.52 201.402 67.752 202.938 66.216C204.474 64.616 205.243 62.344 205.243 59.4V9.95999H219.643V59.496C219.643 66.088 217.563 71.336 213.403 75.24C209.307 79.08 203.707 81 196.603 81Z" fill="white"/>
<path d="M144.04 81C139.368 81 135.304 80.136 131.848 78.408C128.392 76.616 125.704 74.152 123.784 71.016C121.928 67.816 121 64.104 121 59.88V30.12C121 25.896 121.928 22.216 123.784 19.08C125.704 15.88 128.392 13.416 131.848 11.688C135.304 9.896 139.368 9 144.04 9C148.776 9 152.84 9.896 156.232 11.688C159.688 13.416 162.344 15.88 164.2 19.08C166.12 22.216 167.08 25.896 167.08 30.12V59.88C167.08 64.104 166.12 67.816 164.2 71.016C162.344 74.152 159.688 76.616 156.232 78.408C152.84 80.136 148.776 81 144.04 81ZM144.04 68.52C146.92 68.52 149.064 67.784 150.472 66.312C151.944 64.776 152.68 62.632 152.68 59.88V30.12C152.68 27.304 151.976 25.16 150.568 23.688C149.16 22.216 146.984 21.48 144.04 21.48C141.096 21.48 138.92 22.216 137.512 23.688C136.104 25.16 135.4 27.304 135.4 30.12V59.88C135.4 62.632 136.104 64.776 137.512 66.312C138.984 67.784 141.16 68.52 144.04 68.52Z" fill="white"/>
<defs>
<radialGradient id="paint0_radial_301_79" cx="0" cy="0" r="1" gradientUnits="userSpaceOnUse" gradientTransform="translate(56.96 34.3286) rotate(102.839) scale(56.0733)">
<stop stop-color="#FBCFE8"/>
<stop offset="0.345921" stop-color="#F472B6"/>
<stop offset="0.776042" stop-color="#DB2777"/>
</radialGradient>
</defs>
</svg>
